<?xml version="1.0" encoding="UTF-8" standalone="no"?>
<!-- Created with Inkscape (http://www.inkscape.org/) -->

<svg
   xmlns:dc="http://purl.org/dc/elements/1.1/"
   xmlns:cc="http://creativecommons.org/ns#"
   xmlns:rdf="http://www.w3.org/1999/02/22-rdf-syntax-ns#"
   xmlns:svg="http://www.w3.org/2000/svg"
   xmlns="http://www.w3.org/2000/svg"
   xmlns:sodipodi="http://sodipodi.sourceforge.net/DTD/sodipodi-0.dtd"
   xmlns:inkscape="http://www.inkscape.org/namespaces/inkscape"
   width="191.76219mm"
   height="135.54895mm"
   viewBox="0 0 679.47233 480.29155"
   id="svg2"
   version="1.1"
   inkscape:version="0.91 r13725"
   sodipodi:docname="Overview_Usage.svg"
   inkscape:export-filename="/home/mholtgre/Development/open_pipeline/biomedsheets/docs/source/img/Overview_Usage.png"
   inkscape:export-xdpi="54.119999"
   inkscape:export-ydpi="54.119999">
  <defs
     id="defs4">
    <symbol
       id="MagneticDrum">
      <title
         id="title5411">Magnetic Drum (Direct Access)</title>
      <desc
         id="desc5413">Magnetic drum. (ISO)</desc>
      <path
         d="m 25,115 a 65,65 0 0 1 0,-80 l 100,0 a 65,65 1 0 1 0,80 z"
         style="stroke-width:2"
         id="path5415"
         inkscape:connector-curvature="0" />
      <path
         d="m 125,115 a 65,65 0 0 1 0,-80"
         style="fill:none;stroke-width:2;stroke-linecap:butt"
         id="path5417"
         inkscape:connector-curvature="0" />
    </symbol>
    <symbol
       id="MagneticDisk">
      <title
         id="title5398">Magnetic Disk (Database)</title>
      <desc
         id="desc5400">A magnetic disk. (ISO)</desc>
      <path
         d="m 35,25 a 65,65 0 0 1 80,0 l 0,100 a 65,65 0 0 1 -80,0 z"
         style="stroke-width:2"
         id="path5402"
         inkscape:connector-curvature="0" />
      <path
         d="M 115,25 A 65,65 0 0 1 35,25"
         style="fill:none;stroke-width:2;stroke-linecap:butt"
         id="path5404"
         inkscape:connector-curvature="0" />
      <path
         d="M 115,40 A 65,65 0 0 1 35,40"
         style="fill:none;stroke-width:2;stroke-linecap:butt"
         id="path5406"
         inkscape:connector-curvature="0" />
      <path
         d="M 115,55 A 65,65 0 0 1 35,55"
         style="fill:none;stroke-width:2;stroke-linecap:butt"
         id="path5408"
         inkscape:connector-curvature="0" />
    </symbol>
  </defs>
  <sodipodi:namedview
     id="base"
     pagecolor="#ffffff"
     bordercolor="#666666"
     borderopacity="1.0"
     inkscape:pageopacity="0.0"
     inkscape:pageshadow="2"
     inkscape:zoom="0.7"
     inkscape:cx="310.94621"
     inkscape:cy="523.47764"
     inkscape:document-units="px"
     inkscape:current-layer="layer1"
     showgrid="false"
     inkscape:snap-bbox="true"
     inkscape:bbox-nodes="true"
     inkscape:window-width="1920"
     inkscape:window-height="1151"
     inkscape:window-x="0"
     inkscape:window-y="25"
     inkscape:window-maximized="1"
     fit-margin-top="2"
     fit-margin-left="2"
     fit-margin-bottom="2"
     fit-margin-right="2">
    <inkscape:grid
       type="xygrid"
       id="grid3336"
       originx="-20.615579"
       originy="-229.89857" />
  </sodipodi:namedview>
  <metadata
     id="metadata7">
    <rdf:RDF>
      <cc:Work
         rdf:about="">
        <dc:format>image/svg+xml</dc:format>
        <dc:type
           rdf:resource="http://purl.org/dc/dcmitype/StillImage" />
        <dc:title></dc:title>
      </cc:Work>
    </rdf:RDF>
  </metadata>
  <g
     inkscape:label="Layer 1"
     inkscape:groupmode="layer"
     id="layer1"
     transform="translate(-20.61558,-342.1721)">
    <g
       id="g11183">
      <path
         style="fill:#888a85"
         inkscape:connector-curvature="0"
         d="m 539.03514,401.52008 q 0,-6.29509 -4.45408,-10.74923 -4.45414,-4.45407 -10.74923,-4.45407 -6.29516,0 -10.74923,4.45407 -4.45407,4.45414 -4.45407,10.74923 0,6.29516 4.45407,10.74923 4.45407,4.45407 10.74923,4.45407 6.29509,0 10.74923,-4.45407 4.45408,-4.45407 4.45408,-10.74923 z m 45.60991,30.40661 q 0,-3.08817 -2.25676,-5.34493 -2.25668,-2.25669 -5.34486,-2.25669 -3.08817,0 -5.34493,2.25669 -2.25676,2.25676 -2.25676,5.34493 0,3.14754 2.22704,5.37465 2.22703,2.22704 5.37465,2.22704 3.14755,0 5.37458,-2.22704 2.22704,-2.22711 2.22704,-5.37465 z m 0,-60.81322 q 0,-3.08817 -2.25676,-5.34493 -2.25668,-2.25676 -5.34486,-2.25676 -3.08817,0 -5.34493,2.25676 -2.25676,2.25676 -2.25676,5.34493 0,3.14754 2.22704,5.37458 2.22703,2.22711 5.37465,2.22711 3.14755,0 5.37458,-2.22711 2.22704,-2.22704 2.22704,-5.37458 z m -22.805,25.00231 0,10.98679 q 0,0.59385 -0.41567,1.15806 -0.41574,0.56414 -0.95023,0.62358 l -9.20514,1.42527 q -0.65323,2.07857 -1.90039,4.51352 2.0192,2.85061 5.34493,6.82957 0.41567,0.59393 0.41567,1.18779 0,0.71267 -0.41567,1.12834 -1.36597,1.78164 -4.89954,5.31521 -3.53356,3.53364 -4.6619,3.53364 -0.6533,0 -1.24716,-0.41575 l -6.82965,-5.34493 q -2.19731,1.12842 -4.57281,1.84102 -0.6533,6.4139 -1.36597,9.20514 -0.41567,1.42535 -1.78165,1.42535 l -11.04616,0 q -0.65322,0 -1.18771,-0.44539 -0.53448,-0.44547 -0.59393,-1.03933 l -1.3659,-9.08633 q -2.0192,-0.59393 -4.45407,-1.84101 l -7.00776,5.28548 q -0.41574,0.41575 -1.18779,0.41575 -0.6533,0 -1.24716,-0.47512 -8.55184,-7.89862 -8.55184,-9.50207 0,-0.53449 0.41575,-1.12834 0.59385,-0.83149 2.43487,-3.14762 1.84101,-2.31613 2.79124,-3.62266 -1.3659,-2.61306 -2.07857,-4.86982 l -9.02696,-1.42527 q -0.59393,-0.0594 -1.0096,-0.5642 -0.41575,-0.50477 -0.41575,-1.15807 l 0,-10.98679 q 0,-0.59386 0.41575,-1.15806 0.41567,-0.56414 0.95015,-0.62351 l 9.20515,-1.42534 q 0.6533,-2.07857 1.90046,-4.51352 -2.0192,-2.85062 -5.34493,-6.82957 -0.41575,-0.6533 -0.41575,-1.18779 0,-0.71259 0.41575,-1.18771 1.30653,-1.78164 4.86981,-5.28556 3.56329,-3.50384 4.69163,-3.50384 0.65331,0 1.24716,0.41567 l 6.82957,5.34493 q 2.0192,-1.06897 4.57289,-1.90039 0.6533,-6.4139 1.3659,-9.14577 0.41574,-1.42535 1.78164,-1.42535 l 11.04616,0 q 0.65331,0 1.18779,0.44547 0.53449,0.44539 0.59386,1.03925 l 1.36597,9.0864 q 2.01913,0.59386 4.45407,1.84102 l 7.00776,-5.28556 q 0.47512,-0.41567 1.18779,-0.41567 0.65323,0 1.24716,0.47504 8.55184,7.89861 8.55184,9.50207 0,0.53449 -0.41574,1.12842 -0.71268,0.95015 -2.49432,3.20691 -1.78157,2.25676 -2.67243,3.56329 1.3659,2.85061 2.0192,4.86982 l 9.02696,1.36589 q 0.59386,0.11882 1.0096,0.62358 0.41567,0.50484 0.41567,1.15807 z m 38.0083,31.65376 0,8.31429 q 0,0.95023 -8.84877,1.84109 -0.71267,1.60346 -1.78164,3.08817 3.0288,6.71083 3.0288,8.19547 0,0.23756 -0.23756,0.41575 -7.24532,4.21651 -7.36413,4.21651 -0.47512,0 -2.73188,-2.79117 -2.25668,-2.79124 -3.08817,-4.0384 -1.18771,0.11874 -1.78157,0.11874 -0.59393,0 -1.78164,-0.11874 -0.83149,1.24716 -3.08817,4.0384 -2.25676,2.79117 -2.73188,2.79117 -0.11874,0 -7.36413,-4.21651 -0.23756,-0.17819 -0.23756,-0.41575 0,-1.48464 3.0288,-8.19547 -1.06897,-1.48471 -1.78164,-3.08817 -8.84877,-0.89086 -8.84877,-1.84109 l 0,-8.31429 q 0,-0.95023 8.84877,-1.84101 0.77204,-1.72227 1.78164,-3.08817 -3.0288,-6.71083 -3.0288,-8.19555 0,-0.23756 0.23756,-0.41574 0.23756,-0.11874 2.07857,-1.18771 1.84109,-1.06898 3.50392,-2.01921 1.6629,-0.95023 1.78164,-0.95023 0.47512,0 2.73188,2.7616 2.25668,2.76152 3.08817,4.00868 1.18771,-0.11882 1.78164,-0.11882 0.59386,0 1.78157,0.11882 3.0288,-4.21659 5.46375,-6.65146 l 0.3563,-0.11882 q 0.23755,0 7.36413,4.15715 0.23756,0.17818 0.23756,0.41574 0,1.48472 -3.0288,8.19555 1.0096,1.3659 1.78164,3.08817 8.84877,0.89078 8.84877,1.84101 z m 0,-60.81321 0,8.31428 q 0,0.95024 -8.84877,1.84102 -0.71267,1.60353 -1.78164,3.08817 3.0288,6.71083 3.0288,8.19555 0,0.23755 -0.23756,0.41574 -7.24532,4.21652 -7.36413,4.21652 -0.47512,0 -2.73188,-2.79125 -2.25668,-2.79124 -3.08817,-4.03832 -1.18771,0.11874 -1.78157,0.11874 -0.59393,0 -1.78164,-0.11874 -0.83149,1.24708 -3.08817,4.03832 -2.25676,2.79125 -2.73188,2.79125 -0.11874,0 -7.36413,-4.21652 -0.23756,-0.17819 -0.23756,-0.41574 0,-1.48472 3.0288,-8.19555 -1.06897,-1.48464 -1.78164,-3.08817 -8.84877,-0.89078 -8.84877,-1.84102 l 0,-8.31428 q 0,-0.95023 8.84877,-1.84102 0.77204,-1.72227 1.78164,-3.08817 -3.0288,-6.71083 -3.0288,-8.19554 0,-0.23756 0.23756,-0.41575 0.23756,-0.11874 2.07857,-1.18771 1.84109,-1.06905 3.50392,-2.0192 1.6629,-0.95023 1.78164,-0.95023 0.47512,0 2.73188,2.76152 2.25668,2.7616 3.08817,4.00868 1.18771,-0.11874 1.78164,-0.11874 0.59386,0 1.78157,0.11874 3.0288,-4.21652 5.46375,-6.65138 l 0.3563,-0.11882 q 0.23755,0 7.36413,4.15714 0.23756,0.17819 0.23756,0.41575 0,1.48471 -3.0288,8.19554 1.0096,1.3659 1.78164,3.08817 8.84877,0.89079 8.84877,1.84102 z"
         id="path10069" />
      <path
         style="fill:#888a85"
         inkscape:connector-curvature="0"
         d="m 120.75709,527.27774 q 14.07496,0 26.30891,-2.55369 12.23388,-2.55368 19.30108,-7.54224 l 0,10.09593 q 0,4.09777 -6.11697,7.60169 -6.11698,3.50384 -16.62865,5.55277 -10.51168,2.04885 -22.86437,2.04885 -12.35269,0 -22.864285,-2.04885 -10.511669,-2.04893 -16.628649,-5.55277 -6.11697,-3.50392 -6.11697,-7.60169 l 0,-10.09593 q 7.06721,4.98856 19.301079,7.54224 12.233945,2.55369 26.308825,2.55369 z m 0,45.60991 q 14.07496,0 26.30891,-2.55368 12.23388,-2.55369 19.30108,-7.54225 l 0,10.09593 q 0,4.09778 -6.11697,7.60169 -6.11698,3.50384 -16.62865,5.55277 -10.51168,2.04885 -22.86437,2.04885 -12.35269,0 -22.864285,-2.04885 -10.511669,-2.04893 -16.628649,-5.55277 -6.11697,-3.50391 -6.11697,-7.60169 l 0,-10.09593 q 7.06721,4.98856 19.301079,7.54225 12.233945,2.55368 26.308825,2.55368 z m 0,-22.80491 q 14.07496,0 26.30891,-2.55369 12.23388,-2.55369 19.30108,-7.54232 l 0,10.09601 q 0,4.09777 -6.11697,7.60161 -6.11698,3.50392 -16.62865,5.55277 -10.51168,2.04892 -22.86437,2.04892 -12.35269,0 -22.864285,-2.04892 -10.511669,-2.04885 -16.628649,-5.55277 -6.11697,-3.50384 -6.11697,-7.60161 l 0,-10.09601 q 7.06721,4.98863 19.301079,7.54232 12.233945,2.55369 26.308825,2.55369 z m 0,-68.41491 q 12.35269,0 22.86437,2.04885 10.51167,2.04892 16.62865,5.55276 6.11697,3.50392 6.11697,7.60169 l 0,7.60162 q 0,4.09777 -6.11697,7.60169 -6.11698,3.50392 -16.62865,5.55276 -10.51168,2.04893 -22.86437,2.04893 -12.35269,0 -22.864285,-2.04893 -10.511669,-2.04884 -16.628649,-5.55276 -6.11697,-3.50392 -6.11697,-7.60169 l 0,-7.60162 q 0,-4.09777 6.11697,-7.60169 6.11698,-3.50384 16.628649,-5.55276 10.511595,-2.04885 22.864285,-2.04885 z"
         id="path10080" />
      <path
         style="fill:#888a85"
         inkscape:connector-curvature="0"
         d="m 592.24663,544.38147 0,-49.41076 q 0,-0.77204 -0.56413,-1.33625 -0.56421,-0.56413 -1.33625,-0.56413 l -95.02067,0 q -0.77205,0 -1.33626,0.56413 -0.5642,0.56421 -0.5642,1.33625 l 0,49.41076 q 0,0.77204 0.5642,1.33625 0.56421,0.56413 1.33626,0.56413 l 95.02067,0 q 0.77204,0 1.33625,-0.56413 0.56413,-0.56421 0.56413,-1.33625 z m 7.60169,-49.41076 0,64.61406 q 0,3.91959 -2.79124,6.71083 -2.79125,2.79125 -6.71083,2.79125 l -32.307,0 q 0,2.19739 0.95016,4.60253 0.95023,2.40523 1.90046,4.21659 0.95015,1.81129 0.95015,2.58334 0,1.54408 -1.12834,2.6725 -1.12834,1.12834 -2.67243,1.12834 l -30.40668,0 q -1.54409,0 -2.67243,-1.12834 -1.12834,-1.12842 -1.12834,-2.6725 0,-0.83142 0.95015,-2.61306 0.95023,-1.78164 1.90046,-4.15714 0.95016,-2.3755 0.95016,-4.63226 l -32.30699,0 q -3.91959,0 -6.71083,-2.79125 -2.79125,-2.79124 -2.79125,-6.71083 l 0,-64.61406 q 0,-3.91958 2.79125,-6.71083 2.79124,-2.79124 6.71083,-2.79124 l 95.02067,0 q 3.91958,0 6.71083,2.79124 2.79124,2.79125 2.79124,6.71083 z"
         id="path10091" />
      <path
         style="fill:#888a85"
         inkscape:connector-curvature="0"
         d="m 594.39025,601.57127 q 1.95976,1.42534 1.60346,3.80084 l -15.2033,91.21983 q -0.29693,1.72227 -1.90039,2.6725 -0.83149,0.47504 -1.84109,0.47504 -0.65322,0 -1.42527,-0.29693 L 548.72089,688.45584 534.349,705.97527 q -1.06897,1.3659 -2.90998,1.3659 -0.77204,0 -1.30653,-0.23756 -1.12834,-0.41574 -1.81129,-1.39562 -0.68303,-0.97988 -0.68303,-2.16767 l 0,-20.72634 51.31122,-62.89187 -63.48572,54.93388 -23.45822,-9.62089 q -2.19739,-0.83141 -2.3755,-3.26628 -0.11881,-2.37558 1.90039,-3.50392 l 98.82151,-57.01237 q 0.89086,-0.53456 1.90039,-0.53456 1.18778,0 2.13801,0.6533 z"
         id="path10102" />
      <path
         style="fill:#73d216"
         inkscape:connector-curvature="0"
         d="m 373.36814,509.93646 q 0.83141,0.83141 1.66282,2.13795 l -28.03111,0 0,-28.03103 q 1.30653,0.83141 2.13802,1.66282 z m -28.26867,9.73964 32.30699,0 0,62.71366 q 0,2.3755 -1.66283,4.03833 -1.66282,1.66291 -4.0384,1.66291 l -79.81736,0 q -2.3755,0 -4.03833,-1.66291 -1.6629,-1.66283 -1.6629,-4.03833 l 0,-95.02074 q 0,-2.3755 1.6629,-4.03833 1.66283,-1.6629 4.03833,-1.6629 l 47.51037,0 0,32.30707 q 0,2.3755 1.66283,4.0384 1.6629,1.66283 4.0384,1.66283 z m 9.50207,43.70952 0,-3.80084 q 0,-0.83141 -0.53448,-1.3659 -0.53449,-0.53449 -1.36598,-0.53449 l -41.80906,0 q -0.83142,0 -1.3659,0.53449 -0.53449,0.53449 -0.53449,1.3659 l 0,3.80084 q 0,0.83141 0.53449,1.3659 0.53448,0.53449 1.3659,0.53449 l 41.80906,0 q 0.83149,0 1.36598,-0.53449 0.53448,-0.53449 0.53448,-1.3659 z m 0,-15.2033 0,-3.80084 q 0,-0.83142 -0.53448,-1.36591 -0.53449,-0.53449 -1.36598,-0.53449 l -41.80906,0 q -0.83142,0 -1.3659,0.53449 -0.53449,0.53449 -0.53449,1.36591 l 0,3.80084 q 0,0.83141 0.53449,1.3659 0.53448,0.53448 1.3659,0.53448 l 41.80906,0 q 0.83149,0 1.36598,-0.53448 0.53448,-0.53449 0.53448,-1.3659 z m 0,-15.20331 0,-3.80084 q 0,-0.83141 -0.53448,-1.3659 -0.53449,-0.53449 -1.36598,-0.53449 l -41.80906,0 q -0.83142,0 -1.3659,0.53449 -0.53449,0.53449 -0.53449,1.3659 l 0,3.80084 q 0,0.83141 0.53449,1.36591 0.53448,0.53448 1.3659,0.53448 l 41.80906,0 q 0.83149,0 1.36598,-0.53448 0.53448,-0.5345 0.53448,-1.36591 z"
         id="path10171" />
      <path
         inkscape:connector-curvature="0"
         d="m 460.91808,638.10456 q -0.40999,0.40998 -0.99572,0.40998 l -21.61418,-0.87858 q -0.87859,-0.0586 -1.2008,-0.84933 -0.29286,-0.82008 0.29286,-1.40581 l 6.56039,-6.56038 L 407.41,592.2698 q -0.41009,-0.41008 -0.41,-0.9372 10e-6,-0.52721 0.41,-0.9372 l 5.62319,-5.62318 q 0.40998,-0.40999 0.93719,-0.40999 0.52712,-10e-5 0.9372,0.40999 l 36.55064,36.55063 6.56039,-6.56039 q 0.61507,-0.61508 1.40579,-0.29286 0.79082,0.32212 0.87858,1.17155 l 0.99582,21.49695 q 0,0.58573 -0.38072,0.96646 z"
         id="path10221-6-7"
         style="fill:none;stroke:#babdb6;stroke-width:4;stroke-miterlimit:4;stroke-dasharray:none" />
      <path
         inkscape:transform-center-y="-24.285714"
         inkscape:transform-center-x="-20"
         inkscape:connector-curvature="0"
         d="m 455.74233,441.44416 q 0.40999,0.40999 0.40999,0.99571 l -0.87859,21.61419 q -0.0586,0.87858 -0.84933,1.2008 -0.82008,0.29286 -1.4058,-0.29286 l -6.56039,-6.56039 -36.55063,36.55063 q -0.41009,0.41009 -0.9372,0.40999 -0.52721,0 -0.9372,-0.40999 l -5.62319,-5.62319 Q 402,488.91906 402,488.39186 q -10e-5,-0.52712 0.40999,-0.93721 l 36.55063,-36.55063 -6.56039,-6.56039 q -0.61507,-0.61508 -0.29285,-1.4058 0.32211,-0.79081 1.17155,-0.87858 l 21.49695,-0.99582 q 0.58572,0 0.96645,0.38073 z"
         id="path10221-6-5"
         style="fill:none;stroke:#babdb6;stroke-width:4;stroke-miterlimit:4;stroke-dasharray:none" />
      <text
         sodipodi:linespacing="125%"
         id="text11080"
         y="768.50934"
         x="143.75078"
         style="font-style:normal;font-weight:normal;font-size:22.5px;line-height:125%;font-family:Sans;letter-spacing:0px;word-spacing:0px;fill:#000000;fill-opacity:1;stroke:none;stroke-width:1px;stroke-linecap:butt;stroke-linejoin:miter;stroke-opacity:1"
         xml:space="preserve"><tspan
           style="font-size:22.5px;text-align:center;text-anchor:middle"
           y="768.50934"
           x="143.75078"
           id="tspan11082"
           sodipodi:role="line">Export from/</tspan><tspan
           style="font-size:22.5px;text-align:center;text-anchor:middle"
           id="tspan11084"
           y="796.63434"
           x="143.75078"
           sodipodi:role="line">Import into database</tspan></text>
      <g
         transform="translate(0,11.435385)"
         id="g11103">
        <path
           id="path10221"
           d="m 262.06252,505.47231 q 0,0.57981 -0.41417,0.99398 l -15.90479,14.66228 q -0.6627,0.57981 -1.44966,0.24853 -0.78697,-0.3728 -0.78697,-1.20114 l 0,-9.27779 -51.6904,0 q -0.57995,0 -0.95261,-0.37279 -0.37279,-0.3728 -0.37279,-0.95261 l 0,-7.95239 q 0,-0.57981 0.37279,-0.9526 0.37266,-0.3728 0.95261,-0.3728 l 51.6904,0 0,-9.27779 q 0,-0.86985 0.78697,-1.20113 0.78696,-0.33142 1.44966,0.20716 l 15.90479,14.49649 q 0.41417,0.41417 0.41417,0.9526 z"
           inkscape:connector-curvature="0"
           style="fill:none;stroke:#babdb6;stroke-width:4;stroke-miterlimit:4;stroke-dasharray:none" />
        <path
           style="fill:none;stroke:#babdb6;stroke-width:4;stroke-miterlimit:4;stroke-dasharray:none"
           inkscape:connector-curvature="0"
           d="m 190.49113,541.41571 q 0,-0.57981 0.41417,-0.99398 l 15.90479,-14.66228 q 0.6627,-0.57981 1.44966,-0.24853 0.78697,0.3728 0.78697,1.20114 l 0,9.27779 51.6904,0 q 0.57995,0 0.95261,0.37279 0.37279,0.3728 0.37279,0.95261 l 0,7.95239 q 0,0.57981 -0.37279,0.9526 -0.37266,0.3728 -0.95261,0.3728 l -51.6904,0 0,9.27779 q 0,0.86985 -0.78697,1.20113 -0.78696,0.33142 -1.44966,-0.20716 L 190.9053,542.36831 q -0.41417,-0.41417 -0.41417,-0.9526 z"
           id="path11101" />
      </g>
      <text
         sodipodi:linespacing="125%"
         id="text11107"
         y="754.44684"
         x="534.47955"
         style="font-style:normal;font-weight:normal;font-size:22.5px;line-height:125%;font-family:Sans;letter-spacing:0px;word-spacing:0px;fill:#000000;fill-opacity:1;stroke:none;stroke-width:1px;stroke-linecap:butt;stroke-linejoin:miter;stroke-opacity:1"
         xml:space="preserve"><tspan
           style="font-size:22.5px;text-align:center;text-anchor:middle"
           y="754.44684"
           x="534.47955"
           id="tspan11109"
           sodipodi:role="line">Process with Pipelines,</tspan><tspan
           style="font-size:22.5px;text-align:center;text-anchor:middle"
           id="tspan11111"
           y="782.57184"
           x="534.47955"
           sodipodi:role="line">Display sheet to users,</tspan><tspan
           style="font-size:22.5px;text-align:center;text-anchor:middle"
           id="tspan11113"
           y="810.69684"
           x="534.47955"
           sodipodi:role="line">Exchange with collaborators</tspan></text>
      <g
         id="g11177"
         transform="translate(211.03939,11.435385)">
        <path
           style="fill:none;stroke:#babdb6;stroke-width:4;stroke-miterlimit:4;stroke-dasharray:none"
           inkscape:connector-curvature="0"
           d="m 262.06252,505.47231 q 0,0.57981 -0.41417,0.99398 l -15.90479,14.66228 q -0.6627,0.57981 -1.44966,0.24853 -0.78697,-0.3728 -0.78697,-1.20114 l 0,-9.27779 -51.6904,0 q -0.57995,0 -0.95261,-0.37279 -0.37279,-0.3728 -0.37279,-0.95261 l 0,-7.95239 q 0,-0.57981 0.37279,-0.9526 0.37266,-0.3728 0.95261,-0.3728 l 51.6904,0 0,-9.27779 q 0,-0.86985 0.78697,-1.20113 0.78696,-0.33142 1.44966,0.20716 l 15.90479,14.49649 q 0.41417,0.41417 0.41417,0.9526 z"
           id="path11179" />
        <path
           id="path11181"
           d="m 190.49113,541.41571 q 0,-0.57981 0.41417,-0.99398 l 15.90479,-14.66228 q 0.6627,-0.57981 1.44966,-0.24853 0.78697,0.3728 0.78697,1.20114 l 0,9.27779 51.6904,0 q 0.57995,0 0.95261,0.37279 0.37279,0.3728 0.37279,0.95261 l 0,7.95239 q 0,0.57981 -0.37279,0.9526 -0.37266,0.3728 -0.95261,0.3728 l -51.6904,0 0,9.27779 q 0,0.86985 -0.78697,1.20113 -0.78696,0.33142 -1.44966,-0.20716 L 190.9053,542.36831 q -0.41417,-0.41417 -0.41417,-0.9526 z"
           inkscape:connector-curvature="0"
           style="fill:none;stroke:#babdb6;stroke-width:4;stroke-miterlimit:4;stroke-dasharray:none" />
      </g>
    </g>
  </g>
</svg>
